<svg width="69" height="24" viewBox="0 0 69 24" fill="none" xmlns="http://www.w3.org/2000/svg">
<path d="M0.451642 1.22537H5.13649C7.57788 1.22537 9.42543 1.69826 10.6791 2.64402C11.9548 3.56779 12.5926 4.88747 12.5926 6.60305C12.5926 7.52682 12.3727 8.35161 11.9328 9.07743C11.4929 9.80326 10.9101 10.4191 10.1842 10.925C9.48041 11.4089 8.67761 11.7828 7.77583 12.0467C6.89605 12.3106 6.01627 12.4426 5.13649 12.4426H3.8828V20.8555C3.8828 21.0315 3.90479 21.2294 3.94878 21.4494C3.99277 21.6473 4.05875 21.8343 4.14673 22.0102C4.2567 22.1862 4.36668 22.3402 4.47665 22.4721C4.60862 22.6041 4.76258 22.6701 4.93853 22.6701H5.10349V23H0.451642V22.6701H0.616601C0.770563 22.6701 0.913528 22.6041 1.0455 22.4721C1.17746 22.3402 1.28744 22.1862 1.37541 22.0102C1.46339 21.8343 1.52938 21.6473 1.57337 21.4494C1.61735 21.2294 1.63935 21.0315 1.63935 20.8555V3.27087C1.63935 2.96294 1.55137 2.61103 1.37541 2.21513C1.19946 1.81923 0.94652 1.59928 0.616601 1.55529H0.451642V1.22537ZM3.8828 2.38009V11.2879H4.87255C5.75233 11.2879 6.53314 11.1669 7.21497 10.925C7.9188 10.683 8.50166 10.3641 8.96354 9.96822C9.42543 9.57231 9.77734 9.12142 10.0193 8.61555C10.2612 8.10967 10.3822 7.5928 10.3822 7.06493C10.3822 6.42709 10.2722 5.83324 10.0523 5.28337C9.85432 4.71151 9.51341 4.21663 9.02953 3.79874C8.56764 3.35884 7.95179 3.01793 7.18198 2.77599C6.41217 2.51205 5.4664 2.38009 4.34468 2.38009H3.8828ZM22.1861 22.6701H22.351C22.8789 22.6701 23.1428 22.4281 23.1428 21.9443C23.1428 21.7683 23.1098 21.5813 23.0438 21.3834L20.0746 13.3664H14.301L11.4307 21.2514C11.3647 21.4274 11.3317 21.5923 11.3317 21.7463C11.3317 22.0322 11.4087 22.2632 11.5627 22.4391C11.7166 22.5931 11.8816 22.6701 12.0576 22.6701H12.2225V23H8.56042V22.6701H8.72538C9.01131 22.6701 9.28624 22.5051 9.55018 22.1752C9.83611 21.8233 10.0671 21.4164 10.243 20.9545L17.7981 0.829469L25.1883 20.7566C25.3423 21.1964 25.5512 21.6253 25.8152 22.0432C26.1011 22.4611 26.464 22.6701 26.9039 22.6701H27.0689V23H22.1861V22.6701ZM14.6309 12.2447H19.7117L17.1713 5.34935L14.6309 12.2447ZM28.2184 1.22537H32.9033V1.55529H32.7383C32.5623 1.55529 32.4084 1.62127 32.2764 1.75324C32.1444 1.86321 32.0235 2.00618 31.9135 2.18214C31.8255 2.35809 31.7595 2.54505 31.7156 2.743C31.6716 2.94095 31.6496 3.11691 31.6496 3.27087V16.3027C31.6496 17.1604 31.7375 17.9522 31.9135 18.6781C32.0895 19.4039 32.3864 20.0307 32.8043 20.5586C33.2222 21.0865 33.772 21.5044 34.4539 21.8123C35.1357 22.0982 35.9715 22.2412 36.9613 22.2412C38.061 22.2412 38.9408 22.0652 39.6006 21.7133C40.2604 21.3614 40.7663 20.9105 41.1182 20.3607C41.4701 19.7888 41.7011 19.1509 41.8111 18.4471C41.921 17.7433 41.976 17.0505 41.976 16.3686V3.27087C41.976 3.11691 41.954 2.94095 41.91 2.743C41.8661 2.54505 41.7891 2.35809 41.6791 2.18214C41.5911 2.00618 41.4811 1.86321 41.3492 1.75324C41.2172 1.62127 41.0742 1.55529 40.9203 1.55529H40.7553V1.22537H44.3514V1.55529H44.1865C44.0105 1.55529 43.8566 1.62127 43.7246 1.75324C43.6146 1.86321 43.5046 2.00618 43.3947 2.18214C43.3067 2.35809 43.2407 2.54505 43.1967 2.743C43.1527 2.94095 43.1307 3.11691 43.1307 3.27087V16.2697C43.1307 17.6993 42.9548 18.876 42.6029 19.7998C42.251 20.7016 41.7671 21.4164 41.1512 21.9443C40.5354 22.4721 39.8096 22.835 38.9738 23.033C38.16 23.2309 37.2912 23.3299 36.3674 23.3299C35.3777 23.3299 34.4539 23.2199 33.5961 23C32.7603 22.802 32.0345 22.4391 31.4186 21.9113C30.8028 21.3834 30.3189 20.6686 29.967 19.7668C29.6151 18.843 29.4391 17.6883 29.4391 16.3027V3.27087C29.4391 3.11691 29.4171 2.94095 29.3731 2.743C29.3291 2.54505 29.2522 2.35809 29.1422 2.18214C29.0542 2.00618 28.9442 1.86321 28.8123 1.75324C28.6803 1.62127 28.5373 1.55529 28.3834 1.55529H28.2184V1.22537ZM51.1472 22.6701H51.3122V23H46.6604V22.6701H46.8253C46.9793 22.6701 47.1222 22.6041 47.2542 22.4721C47.3862 22.3402 47.4961 22.1862 47.5841 22.0102C47.6941 21.8343 47.7711 21.6473 47.8151 21.4494C47.8591 21.2294 47.881 21.0315 47.881 20.8555V3.27087C47.881 3.11691 47.8591 2.94095 47.8151 2.743C47.7711 2.54505 47.6941 2.35809 47.5841 2.18214C47.4961 2.00618 47.3862 1.86321 47.2542 1.75324C47.1222 1.62127 46.9793 1.55529 46.8253 1.55529H46.6604V1.22537H52.4009C54.6004 1.22537 56.294 1.65427 57.4817 2.51205C58.6914 3.36984 59.2962 4.63453 59.2962 6.30612C59.2962 7.14191 59.1533 7.87873 58.8673 8.51657C58.6034 9.13242 58.2405 9.67129 57.7786 10.1332C57.3167 10.5731 56.7669 10.936 56.129 11.2219C55.5132 11.4858 54.8533 11.6838 54.1495 11.8158L56.5249 15.4449C57.0968 16.3246 57.6796 17.1934 58.2735 18.0512C58.8673 18.887 59.4502 19.7558 60.0221 20.6576C60.176 20.8775 60.341 21.1085 60.5169 21.3504C60.7149 21.5923 60.9128 21.8123 61.1108 22.0102C61.3307 22.2082 61.5507 22.3732 61.7706 22.5051C62.0126 22.6151 62.2545 22.6701 62.4964 22.6701V23H61.0778C60.198 23 59.4722 22.7911 58.9003 22.3732C58.3505 21.9333 57.8886 21.4274 57.5147 20.8555C56.5249 19.4039 55.5352 17.9303 54.5454 16.4346C53.5776 14.939 52.6099 13.4654 51.6421 12.0137C51.4002 11.9917 51.1362 11.9697 50.8503 11.9477C50.5864 11.9037 50.3334 11.8597 50.0915 11.8158V20.8555C50.0915 21.0315 50.1135 21.2294 50.1575 21.4494C50.2015 21.6473 50.2675 21.8343 50.3554 22.0102C50.4654 22.1862 50.5754 22.3402 50.6854 22.4721C50.8173 22.6041 50.9713 22.6701 51.1472 22.6701ZM50.0915 2.34709V10.727H50.2565C50.4324 10.749 50.7074 10.771 51.0813 10.793C51.4772 10.793 51.961 10.793 52.5329 10.793C52.9948 10.793 53.4787 10.727 53.9845 10.5951C54.5124 10.4411 54.9963 10.1992 55.4362 9.86924C55.8981 9.51733 56.272 9.06644 56.5579 8.51657C56.8658 7.96671 57.0198 7.27388 57.0198 6.43809C57.0198 5.60229 56.8548 4.92046 56.5249 4.39259C56.217 3.86472 55.7771 3.44682 55.2052 3.1389C54.6554 2.83097 53.9845 2.62203 53.1927 2.51205C52.4009 2.40208 51.5321 2.34709 50.5864 2.34709H50.0915ZM63.7844 1.22537H68.5022V1.55529H68.3373C68.1833 1.55529 68.0404 1.62127 67.9084 1.75324C67.7764 1.86321 67.6665 2.00618 67.5785 2.18214C67.4905 2.3361 67.4135 2.52305 67.3475 2.743C67.3035 2.94095 67.2816 3.11691 67.2816 3.27087V20.8555C67.2816 21.0315 67.3035 21.2294 67.3475 21.4494C67.3915 21.6473 67.4575 21.8343 67.5455 22.0102C67.6555 22.1862 67.7654 22.3402 67.8754 22.4721C68.0074 22.6041 68.1613 22.6701 68.3373 22.6701H68.5022V23H63.7844V22.6701H63.9494C64.1253 22.6701 64.2793 22.6151 64.4113 22.5051C64.5432 22.3732 64.6532 22.2192 64.7412 22.0432C64.8512 21.8453 64.9281 21.6473 64.9721 21.4494C65.0161 21.2294 65.0381 21.0315 65.0381 20.8555V3.27087C65.0381 3.11691 65.0161 2.94095 64.9721 2.743C64.9281 2.54505 64.8512 2.35809 64.7412 2.18214C64.6532 2.00618 64.5432 1.86321 64.4113 1.75324C64.2793 1.62127 64.1253 1.55529 63.9494 1.55529H63.7844V1.22537Z" fill="black"/>
</svg>
